Coordinates
version=1
nRows=21
nColumns=22
inDegrees=yes

Units are S.I. units (second, meters, Newtons, ...)
If the header above contains a line with 'inDegrees', this indicates whether rotational values are in degrees (yes) or radians (no).

endheader
time	pelvis_tilt	pelvis_list	pelvis_rotation	pelvis_tx	pelvis_ty	pelvis_tz	hip_flexion_r	hip_adduction_r	hip_rotation_r	knee_angle_r	ankle_angle_r	subtalar_angle_r	hip_flexion_l	hip_adduction_l	hip_rotation_l	knee_angle_l	ankle_angle_l	subtalar_angle_l	lumbar_extension	lumbar_bending	lumbar_rotation
      1.21000000	     -4.13086234	     -4.71401036	     -7.68196273	     -1.14668350	      0.94485372	      0.46103234	      6.35474514	      8.75963606	      2.00241184	    -19.25410156	     16.95847208	     -2.13137969	     17.78528242	     -8.89657488	     -6.40048414	    -42.89248726	     11.86620964	     -1.85163006	     -6.31242798	      4.83371149	      1.17811958
      1.22000000	     -4.05159831	     -4.77791553	     -7.94002444	     -1.14488217	      0.94485731	      0.46249293	      5.97504227	      8.86925271	      2.18429824	    -19.00582847	     17.00149257	     -1.97753820	     19.03834092	     -9.15578467	     -6.25305373	    -45.23613451	     10.72286188	     -1.85454025	     -6.61303851	      4.93696458	      1.54168481
      1.23000000	     -3.99607261	     -4.79684925	     -8.21013822	     -1.14297588	      0.94488476	      0.46387742	      5.60602279	      8.92371463	      2.37414994	    -18.73135717	     17.06000443	     -1.81798535	     20.30480369	     -9.37687855	     -6.21082139	    -47.44805631	      9.61964363	     -1.95312285	     -6.87600184	      4.99306784	      1.91897549
      1.24000000	     -3.93613735	     -4.80248038	     -8.50608363	     -1.14097582	      0.94496451	      0.46522583	      5.22436446	      8.95833725	      2.59226055	    -18.45192679	     17.09902153	     -1.68744822	     21.53161279	     -9.60736341	     -6.30042294	    -49.48391051	      8.68742062	     -2.07135466	     -7.14535178	      5.03043255	      2.32160039
      1.25000000	     -3.90097674	     -4.75954447	     -8.81279751	     -1.13885942	      0.94505425	      0.46650267	      4.85939146	      8.93452587	      2.81971108	    -18.15609419	     17.15075541	     -1.55129531	     22.73631144	     -9.79862677	     -6.49239906	    -51.28728511	      7.93356292	     -2.22611175	     -7.37407481	      5.01424581	      2.72125289
      1.26000000	     -3.87026193	     -4.67909219	     -9.13000270	     -1.13661783	      0.94518560	      0.46769514	      4.48876726	      8.86292367	      3.07937897	    -17.84619103	     17.17616502	     -1.42348479	     23.88371474	     -9.95436404	     -6.77464617	    -52.82552104	      7.38663165	     -2.34936947	     -7.58878389	      4.95860684	      3.12602828
      1.27000000	     -3.85881475	     -4.55940967	     -9.45068246	     -1.13425684	      0.94531437	      0.46879804	      4.14350082	      8.73969828	      3.31849643	    -17.54515669	     17.22982276	     -1.29496777	     24.98886086	    -10.06889487	     -7.12690045	    -54.08133729	      7.03465026	     -2.46725641	     -7.77350827	      4.86085404	      3.52238127
      1.28000000	     -3.86500790	     -4.40540668	     -9.76817483	     -1.13175965	      0.94543737	      0.46979728	      3.81958401	      8.57193321	      3.54600888	    -17.25063364	     17.28591888	     -1.16092846	     26.04531167	    -10.13956987	     -7.53237719	    -55.03964789	      6.83544929	     -2.56242882	     -7.92904792	      4.73234947	      3.89771830
      1.29000000	     -3.88418971	     -4.22459321	    -10.07313853	     -1.12911116	      0.94555411	      0.47069251	      3.50705164	      8.36755486	      3.75590858	    -16.95611842	     17.34360990	     -1.02423017	     27.04607721	    -10.16338455	     -7.96219072	    -55.69509538	      6.74008441	     -2.61401710	     -8.06056943	      4.57907633	      4.24112868
      1.30000000	     -3.90764759	     -4.02487506	    -10.35722321	     -1.12630302	      0.94566652	      0.47146846	      3.19428052	      8.13428571	      3.95169451	    -16.65920101	     17.39260937	     -0.90804097	     27.97967522	    -10.13508573	     -8.38772899	    -56.04840305	      6.70770740	     -2.60744550	     -8.18004768	      4.41233732	      4.55412084
      1.31000000	     -3.94018168	     -3.81327400	    -10.61802838	     -1.12333486	      0.94574664	      0.47214278	      2.89264722	      7.88235020	      4.12114381	    -16.37397092	     17.43473096	     -0.80719013	     28.85150393	    -10.06073574	     -8.79376560	    -56.11000258	      6.72110339	     -2.55596599	     -8.28309649	      4.23831713	      4.83257580
      1.32000000	     -3.97663517	     -3.60044950	    -10.85260838	     -1.12020773	      0.94578137	      0.47272766	      2.59744191	      7.62438060	      4.26107815	    -16.10445744	     17.47760173	     -0.72614848	     29.65542993	     -9.94648761	     -9.16005589	    -55.89586660	      6.75375876	     -2.46591453	     -8.37886327	      4.06596311	      5.07632308
      1.33000000	     -4.01512362	     -3.39242888	    -11.05819686	     -1.11691926	      0.94575846	      0.47323582	      2.30634844	      7.36839624	      4.37468459	    -15.85264695	     17.52932001	     -0.66925733	     30.38868815	     -9.79828030	     -9.47583862	    -55.42099129	      6.79340148	     -2.35186788	     -8.47103924	      3.89927341	      5.29192363
      1.34000000	     -4.05454034	     -3.19543607	    -11.23612491	     -1.11346964	      0.94566052	      0.47367296	      2.01642546	      7.12089289	      4.46559603	    -15.61742445	     17.59610746	     -0.63366412	     31.05184292	     -9.62232518	     -9.73235977	    -54.71019728	      6.84108467	     -2.22929900	     -8.56200197	      3.74527792	      5.47701343
      1.35000000	     -4.09454592	     -3.01199235	    -11.38858847	     -1.10985397	      0.94547951	      0.47405019	      1.72448424	      6.88533339	      4.53917840	    -15.39636770	     17.68716168	     -0.61325891	     31.64376255	     -9.42687541	     -9.93275037	    -53.78207896	      6.89863563	     -2.10495576	     -8.65185183	      3.60515654	      5.64051044
      1.36000000	     -4.13598318	     -2.85075231	    -11.50957323	     -1.10606704	      0.94520680	      0.47439217	      1.42179164	      6.67344255	      4.59573888	    -15.17755456	     17.80108128	     -0.60272000	     32.17052198	     -9.22632523	    -10.07504121	    -52.66314844	      6.96713073	     -1.98956034	     -8.73879916	      3.48153622	      5.78230111
      1.37000000	     -4.18260127	     -2.70622676	    -11.60488533	     -1.10211186	      0.94483668	      0.47467935	      1.11391074	      6.47769167	      4.64111833	    -14.96297528	     17.93461529	     -0.59975027	     32.63992789	     -9.01599038	    -10.16065487	    -51.37635550	      7.04202339	     -1.89322062	     -8.81778147	      3.37511298	      5.90608275
      1.38000000	     -4.23478411	     -2.58079243	    -11.67376599	     -1.09798298	      0.94437545	      0.47491156	      0.79471474	      6.30004043	      4.67127716	    -14.74248548	     18.08495324	     -0.60031250	     33.05584664	     -8.80337828	    -10.19814672	    -49.94317247	      7.12041753	     -1.81251054	     -8.88691429	      3.28747271	      6.01317175
      1.39000000	     -4.29512217	     -2.47373447	    -11.71463914	     -1.09367613	      0.94382979	      0.47508714	      0.46267955	      6.14003655	      4.68521378	    -14.50899826	     18.24350749	     -0.60051125	     33.42451724	     -8.58957854	    -10.19100557	    -48.38327146	      7.19614856	     -1.74660441	     -8.94113655	      3.21906073	      6.10146118
      1.40000000	     -4.36794952	     -2.37678484	    -11.72833824	     -1.08919553	      0.94320469	      0.47518912	      0.12892584	      5.98784018	      4.67422879	    -14.26989533	     18.40661828	     -0.59949547	     33.75359093	     -8.36480895	    -10.14127946	    -46.71226704	      7.25646818	     -1.69724201	     -8.97316761	      3.16368238	      6.17218623
      1.41000000	     -4.46102554	     -2.28995823	    -11.71375576	     -1.08455465	      0.94250065	      0.47520933	     -0.19865652	      5.84556441	      4.64507470	    -14.02270816	     18.56565177	     -0.59358683	     34.05429681	     -8.12698095	    -10.04398605	    -44.94507288	      7.29214466	     -1.66669624	     -8.97528620	      3.12454635	      6.22095734
